# xmcd CD database file
#
# Track frame offsets:
#	150
#	18186
#	37838
#	56105
#	76345
#	95476
#	110824
#	129024
#	150657
#	167760
#	186836
#	206137
#
# Disc length: 2982 seconds
#
# Revision: 0
# Processed by: cddbd v1.5PL3 Copyright (c) Steve Scherf et al.
# Submitted via: freeDB plugin v1.0
#
DISCID=950ba40c
DTITLE=ＤＲＥＡＭＳ　ＣＯＭＥ　ＴＲＵＥ - ＤＲＥＡＭＡＮＩＡ　ＤＲＥＡＭＳ　ＣＯＭＥ　ＴＲＵＥ〜ＳＭＯＯＴＨ　ＧＲＯＯＶＥ　ＣＯＬＬＥＣＴＩＯＮ〜
DYEAR=1900
DGENRE=Misc
TTITLE0=Ｅｙｅｓ　ｔｏ　ｍｅ
TTITLE1=うれしい！たのしい！大好き！（“ＥＶＥＲＬＡＳＴＩＮＧ”　ＶＥＲＳＩＯＮ）
TTITLE2=朝がまた来る
TTITLE3=ＳＮＯＷ　ＤＡＮＣＥ
TTITLE4=なんて恋したんだろ
TTITLE5=いつのまに
TTITLE6=ごめんねＤＪ
TTITLE7=そうだよ〜ａｌｂｕｍ　ｍｉｘ〜
TTITLE8=夢で逢ってるから
TTITLE9=あはは
TTITLE10=ｇｏ　ｆｏｒ　ｉｔ！
TTITLE11=ｙｏｕ　ｇｏ　ｇｉｒｌ！（ボーナス・トラック）
EXTD=
EXTT0=
EXTT1=
EXTT2=
EXTT3=
EXTT4=
EXTT5=
EXTT6=
EXTT7=
EXTT8=
EXTT9=
EXTT10=
EXTT11=
PLAYORDER=
